<svg width="88" height="57" viewBox="0 0 88 57" fill="none" xmlns="http://www.w3.org/2000/svg">
<path d="M34.8181 14.8056C34.16 14.9024 33.4149 14.8443 32.844 15.1153C25.0057 18.8215 18.5706 24.1341 15.0869 32.2337C13.6257 35.6399 13.0258 39.4429 12.2903 43.1201C11.971 44.7265 11.4968 45.4329 9.77434 45.3652C7.98412 45.2974 7.98412 44.1943 8.00347 42.9653C8.07121 36.5399 10.4711 30.8692 13.8677 25.5857C18.977 17.6216 26.254 12.6961 35.4567 10.5768C37.1889 10.1801 38.5243 9.78333 37.5469 7.36412C36.5696 4.93523 37.7501 1.65477 40.3048 0.580638C42.0273 -0.145127 44.6497 -0.232219 46.2271 0.599992C48.3947 1.74186 50.1269 4.14172 49.0914 6.92866C48.2108 9.30917 49.3914 9.81236 51.1526 10.1801C56.949 11.409 62.281 13.6831 66.8194 17.5442C74.5803 24.1535 79.2252 32.4078 79.9606 42.7137C80.0961 44.5813 79.5929 45.3458 77.5511 45.3361C59.2812 45.2781 41.0112 45.2684 22.7413 45.3361C20.5157 45.3361 19.9157 44.5329 20.1189 42.4621C21.0576 32.5433 25.1025 24.2115 32.6117 17.6022C33.4343 16.8862 34.2471 16.1604 35.0697 15.4443C34.9922 15.2314 34.9148 15.0088 34.8374 14.7959L34.8181 14.8056ZM43.2369 9.40594C45.211 9.41561 46.7109 7.94473 46.7496 5.9513C46.798 3.83206 45.2981 2.3128 43.1885 2.3515C41.1467 2.39021 39.7726 3.82239 39.8016 5.88356C39.8307 7.93505 41.2532 9.38658 43.2369 9.39626V9.40594Z" fill="#F3E7D3"/>
<path d="M43.7936 56.3049C30.9331 56.3049 18.0725 56.3436 5.21197 56.2468C4.05075 56.2468 2.7734 55.5598 1.77669 54.8631C0.615462 54.0502 0.789645 52.0858 2.07667 51.4084C3.20886 50.8085 4.53459 50.2666 5.78291 50.2569C30.9815 50.1891 56.1897 50.2085 81.3882 50.2182C82.0462 50.2182 82.7527 50.1988 83.3526 50.4117C84.8429 50.9633 86.7395 51.3987 86.217 53.6051C85.8009 55.3663 84.5332 56.3049 82.5882 56.3049C69.6502 56.2856 56.7219 56.2952 43.7839 56.2952L43.7936 56.3049Z" fill="#F3E7D3"/>
</svg>
