<svg width="112" height="149" viewBox="0 0 112 149" fill="none" xmlns="http://www.w3.org/2000/svg">
<path d="M8.17592 144.793L21.9439 120.753C22.0313 121.016 22.1187 121.278 22.2061 121.531C27.3986 136.077 49.8295 109.879 52.347 94.1702C59.0081 52.6129 77.2255 59.1603 84.4635 53.5919C92.5232 47.3854 112.096 15.8371 105.496 7.58507C95.6702 -4.70556 99.2805 24.8934 74.0873 25.9161C74.0873 25.9161 55.2929 23.9405 52.0848 42.7786C50.319 53.1461 36.8045 47.0794 24.4177 77.4127C18.8406 91.0757 18.7532 104.914 20.3966 114.407L4.33838 142.476L8.17592 144.793Z" fill="black"/>
<path d="M9.78454 145.772C13.8057 138.753 17.8268 131.733 21.8479 124.714C22.4161 123.726 22.9843 122.729 23.5525 121.741L20.3443 119.897C21.3846 123.009 23.3952 125.203 26.5246 126.383C28.7625 127.231 31.0178 126.619 33.0633 125.544C35.8431 124.093 38.2383 121.916 40.3887 119.661C42.9937 116.925 45.3015 113.9 47.3295 110.718C49.3576 107.536 51.1496 104.171 52.4608 100.631C53.9644 96.5745 54.3665 92.2824 55.3018 88.0777C56.954 80.6299 59.3667 72.9023 64.0959 66.7832C66.8757 63.1817 70.4947 60.4456 74.7343 58.8022C77.8026 57.6133 81.1244 57.0714 84.1315 55.7077C85.705 54.9909 86.9638 53.8982 88.1614 52.6656C90.2069 50.5764 92.0077 48.2424 93.721 45.8822C98.118 39.798 101.999 33.2157 104.971 26.3186C106.256 23.3377 107.402 20.2432 108.031 17.0525C108.486 14.7535 108.774 12.1398 107.909 9.89318C107.043 7.6466 104.98 5.94199 103.066 4.77936C101.667 3.93143 99.9712 3.05728 98.4589 4.09752C97.1914 4.97168 96.3784 6.53642 95.6354 7.83017C94.4815 9.83199 93.3888 11.86 92.1038 13.7832C88.7558 18.7659 84.1665 22.6209 78.2572 24.1157C76.133 24.6577 73.9563 24.9374 71.771 24.8675C70.0314 24.8063 68.2831 24.9549 66.5697 25.2696C60.8003 26.3186 55.6253 29.518 52.8105 34.7717C51.8489 36.5637 51.1846 38.4956 50.7475 40.4712C50.4852 41.6687 50.3454 42.8663 49.8559 43.994C49.174 45.5413 47.9939 46.7388 46.6477 47.7266C45.0218 48.9242 43.2472 49.9033 41.5689 51.0135C39.2436 52.552 37.0582 54.3003 35.1088 56.2934C32.2853 59.1693 29.9338 62.4824 27.9058 65.9615C25.0386 70.883 22.6609 76.1804 20.965 81.6177C19.2691 87.0549 18.2289 93.0341 17.9492 98.8823C17.8268 101.409 17.8443 103.944 18.0016 106.479C18.0715 107.571 18.159 108.664 18.2813 109.757C18.3425 110.307 18.4125 110.858 18.4824 111.409C18.5523 111.96 18.8146 112.703 18.7621 113.271C18.7359 113.621 18.5523 113.874 18.36 114.206L17.1275 116.365C15.79 118.691 14.4613 121.025 13.1238 123.35C10.1867 128.481 7.24949 133.612 4.30358 138.753C3.77909 139.67 3.2546 140.588 2.7301 141.506C2.53779 141.838 4.04134 142.712 4.15498 142.782C5.43124 143.552 6.71625 144.33 7.99252 145.099C8.19358 145.221 9.58349 146.104 9.78454 145.781C9.9856 145.457 8.47331 144.574 8.35967 144.504C7.0834 143.735 5.79839 142.957 4.52212 142.188L5.947 143.464C10.6849 135.186 15.4228 126.916 20.1608 118.638L21.4283 116.427C21.5944 116.129 21.9091 115.762 21.9965 115.43C22.1276 114.94 21.8042 114.093 21.7343 113.586C21.5769 112.475 21.4458 111.365 21.3496 110.255C21.1223 107.729 21.0437 105.185 21.1049 102.641C21.3584 91.146 24.549 80.0792 29.9688 69.9739C33.3168 63.7324 37.6264 58.0155 43.4396 53.8894C46.3767 51.8002 50.3629 50.2267 52.4259 47.1322C53.8682 44.9643 53.877 42.2107 54.6987 39.8068C55.8001 36.5899 57.6533 33.6615 60.2758 31.4761C63.9735 28.3991 68.825 27.0004 73.5805 26.9043C74.8218 26.878 76.0106 26.9654 77.2519 26.8431C80.6349 26.5196 83.9654 25.5843 86.9201 23.8972C91.5706 21.2485 94.735 16.9738 97.3575 12.4195C98.3103 10.7586 99.1757 9.01028 100.321 7.47176C101.038 6.51019 101.851 5.63604 103.127 5.65352C103.005 5.65352 103.31 5.70597 103.38 5.71471C103.083 5.67975 103.529 5.81087 103.136 5.61855C103.485 5.78464 102.629 5.33008 102.716 5.38253C102.524 5.26889 102.288 5.00665 102.541 5.27763C102.314 5.03287 102.812 5.53114 102.9 5.60981C103.512 6.21298 104.237 7.05217 104.622 7.92633C105.54 10.033 105.295 12.5244 104.893 14.7185C103.66 21.4583 100.373 27.892 97.0166 33.7839C93.6598 39.6757 90.0496 45.2528 85.5302 50.1044C84.3413 51.3806 83.0738 52.6569 81.509 53.4699C80.224 54.1342 78.8167 54.5538 77.4355 54.9559C73.9826 55.9612 70.5384 56.9577 67.4439 58.8634C62.9595 61.617 59.6989 65.8654 57.3561 70.5159C55.5379 74.1262 54.2092 77.9637 53.1427 81.8624C52.4871 84.2751 51.9363 86.714 51.4643 89.1616C51.0622 91.2509 50.8087 93.3838 50.2755 95.4468C48.4747 102.431 44.4711 108.987 39.9604 114.538C37.8275 117.161 35.4673 119.661 32.7661 121.706C30.8167 123.184 28.4653 124.679 25.9477 124.757C25.5194 124.775 25.1347 124.705 24.7151 124.635C24.4704 124.6 24.5403 124.556 24.8025 124.714C24.9424 124.801 25.2047 125.037 25.362 125.072C25.397 125.142 25.5543 125.107 25.362 125.072C25.1347 124.652 24.7239 124.311 24.4878 123.883C24.0857 123.166 23.8147 122.397 23.5612 121.619C23.4126 121.182 20.6241 119.294 20.3531 119.775C16.332 126.794 12.3109 133.814 8.28973 140.833C7.72153 141.821 7.15333 142.817 6.58513 143.805C6.31414 144.268 9.55726 146.192 9.80202 145.763L9.78454 145.772Z" fill="black"/>
<path d="M8.17592 144.793L21.9439 120.753C22.0313 121.016 22.1187 121.278 22.2061 121.531C27.3986 136.077 49.8295 109.879 52.347 94.1702C59.0081 52.6129 77.2255 59.1603 84.4635 53.5919C92.5232 47.3854 112.096 15.8371 105.496 7.58507C95.6702 -4.70556 99.2805 24.8934 74.0873 25.9161C74.0873 25.9161 55.2929 23.9405 52.0848 42.7786C50.319 53.1461 36.8045 47.0794 24.4177 77.4127C18.8406 91.0757 18.7532 104.914 20.3966 114.407L4.33838 142.476L8.17592 144.793Z" fill="black"/>
<path d="M9.78454 145.772C13.8057 138.753 17.8268 131.733 21.8479 124.714C22.4161 123.726 22.9843 122.729 23.5525 121.741L20.3443 119.897C21.3846 123.009 23.3952 125.203 26.5246 126.383C28.7625 127.231 31.0178 126.619 33.0633 125.544C35.8431 124.093 38.2383 121.916 40.3887 119.661C42.9937 116.925 45.3015 113.9 47.3295 110.718C49.3576 107.536 51.1496 104.171 52.4608 100.631C53.9644 96.5745 54.3665 92.2824 55.3018 88.0777C56.954 80.6299 59.3667 72.9023 64.0959 66.7832C66.8757 63.1817 70.4947 60.4456 74.7343 58.8022C77.8026 57.6133 81.1244 57.0714 84.1315 55.7077C85.705 54.9909 86.9638 53.8982 88.1614 52.6656C90.2069 50.5764 92.0077 48.2424 93.721 45.8822C98.118 39.798 101.999 33.2157 104.971 26.3186C106.256 23.3377 107.402 20.2432 108.031 17.0525C108.486 14.7535 108.774 12.1398 107.909 9.89318C107.043 7.6466 104.98 5.94199 103.066 4.77936C101.667 3.93143 99.9712 3.05728 98.4589 4.09752C97.1914 4.97168 96.3784 6.53642 95.6354 7.83017C94.4815 9.83199 93.3888 11.86 92.1038 13.7832C88.7558 18.7659 84.1665 22.6209 78.2572 24.1157C76.133 24.6577 73.9563 24.9374 71.771 24.8675C70.0314 24.8063 68.2831 24.9549 66.5697 25.2696C60.8003 26.3186 55.6253 29.518 52.8105 34.7717C51.8489 36.5637 51.1846 38.4956 50.7475 40.4712C50.4852 41.6687 50.3454 42.8663 49.8559 43.994C49.174 45.5413 47.9939 46.7388 46.6477 47.7266C45.0218 48.9242 43.2472 49.9033 41.5689 51.0135C39.2436 52.552 37.0582 54.3003 35.1088 56.2934C32.2853 59.1693 29.9338 62.4824 27.9058 65.9615C25.0386 70.883 22.6609 76.1804 20.965 81.6177C19.2691 87.0549 18.2289 93.0341 17.9492 98.8823C17.8268 101.409 17.8443 103.944 18.0016 106.479C18.0715 107.571 18.159 108.664 18.2813 109.757C18.3425 110.307 18.4125 110.858 18.4824 111.409C18.5523 111.96 18.8146 112.703 18.7621 113.271C18.7359 113.621 18.5523 113.874 18.36 114.206L17.1275 116.365C15.79 118.691 14.4613 121.025 13.1238 123.35C10.1867 128.481 7.24949 133.612 4.30358 138.753C3.77909 139.67 3.2546 140.588 2.7301 141.506C2.53779 141.838 4.04134 142.712 4.15498 142.782C5.43124 143.552 6.71625 144.33 7.99252 145.099C8.19358 145.221 9.58349 146.104 9.78454 145.781C9.9856 145.457 8.47331 144.574 8.35967 144.504C7.0834 143.735 5.79839 142.957 4.52212 142.188L5.947 143.464C10.6849 135.186 15.4228 126.916 20.1608 118.638L21.4283 116.427C21.5944 116.129 21.9091 115.762 21.9965 115.43C22.1276 114.94 21.8042 114.093 21.7343 113.586C21.5769 112.475 21.4458 111.365 21.3496 110.255C21.1223 107.729 21.0437 105.185 21.1049 102.641C21.3584 91.146 24.549 80.0792 29.9688 69.9739C33.3168 63.7324 37.6264 58.0155 43.4396 53.8894C46.3767 51.8002 50.3629 50.2267 52.4259 47.1322C53.8682 44.9643 53.877 42.2107 54.6987 39.8068C55.8001 36.5899 57.6533 33.6615 60.2758 31.4761C63.9735 28.3991 68.825 27.0004 73.5805 26.9043C74.8218 26.878 76.0106 26.9654 77.2519 26.8431C80.6349 26.5196 83.9654 25.5843 86.9201 23.8972C91.5706 21.2485 94.735 16.9738 97.3575 12.4195C98.3103 10.7586 99.1757 9.01028 100.321 7.47176C101.038 6.51019 101.851 5.63604 103.127 5.65352C103.005 5.65352 103.31 5.70597 103.38 5.71471C103.083 5.67975 103.529 5.81087 103.136 5.61855C103.485 5.78464 102.629 5.33008 102.716 5.38253C102.524 5.26889 102.288 5.00665 102.541 5.27763C102.314 5.03287 102.812 5.53114 102.9 5.60981C103.512 6.21298 104.237 7.05217 104.622 7.92633C105.54 10.033 105.295 12.5244 104.893 14.7185C103.66 21.4583 100.373 27.892 97.0166 33.7839C93.6598 39.6757 90.0496 45.2528 85.5302 50.1044C84.3413 51.3806 83.0738 52.6569 81.509 53.4699C80.224 54.1342 78.8167 54.5538 77.4355 54.9559C73.9826 55.9612 70.5384 56.9577 67.4439 58.8634C62.9595 61.617 59.6989 65.8654 57.3561 70.5159C55.5379 74.1262 54.2092 77.9637 53.1427 81.8624C52.4871 84.2751 51.9363 86.714 51.4643 89.1616C51.0622 91.2509 50.8087 93.3838 50.2755 95.4468C48.4747 102.431 44.4711 108.987 39.9604 114.538C37.8275 117.161 35.4673 119.661 32.7661 121.706C30.8167 123.184 28.4653 124.679 25.9477 124.757C25.5194 124.775 25.1347 124.705 24.7151 124.635C24.4704 124.6 24.5403 124.556 24.8025 124.714C24.9424 124.801 25.2047 125.037 25.362 125.072C25.397 125.142 25.5543 125.107 25.362 125.072C25.1347 124.652 24.7239 124.311 24.4878 123.883C24.0857 123.166 23.8147 122.397 23.5612 121.619C23.4126 121.182 20.6241 119.294 20.3531 119.775C16.332 126.794 12.3109 133.814 8.28973 140.833C7.72153 141.821 7.15333 142.817 6.58513 143.805C6.31414 144.268 9.55726 146.192 9.80202 145.763L9.78454 145.772Z" fill="black"/>
<path d="M8.17592 144.793L21.9439 120.753C22.0313 121.016 22.1187 121.278 22.2061 121.531C27.3986 136.077 49.8295 109.879 52.347 94.1702C59.0081 52.6129 77.2255 59.1603 84.4635 53.5919C92.5232 47.3854 112.096 15.8371 105.496 7.58507C95.6702 -4.70556 99.2805 24.8934 74.0873 25.9161C74.0873 25.9161 55.2929 23.9405 52.0848 42.7786C50.319 53.1461 36.8045 47.0794 24.4177 77.4127C18.8406 91.0757 18.7532 104.914 20.3966 114.407L4.33838 142.476L8.17592 144.793Z" fill="#626D2F"/>
<path d="M9.78438 145.055C13.8055 138.036 17.8266 131.016 21.8477 123.997C22.4159 123.009 22.9841 122.012 23.5523 121.025L20.248 121.584C20.9736 123.769 22.1187 125.955 24.4003 126.811C26.6818 127.668 28.9983 127.109 31.0876 126.208C36.4986 123.874 40.8694 118.927 44.331 114.311C48.2822 109.049 51.7701 103.122 53.5184 96.7405C54.0079 94.966 54.2439 93.1477 54.5761 91.347C54.987 89.1004 55.4503 86.8626 56.001 84.651C56.9189 80.9708 58.0378 77.308 59.5763 73.8376C60.704 71.3113 62.1376 68.6626 63.7285 66.5734C64.4279 65.6555 65.1884 64.7726 66.0101 63.9509C66.1849 63.7761 66.3597 63.6013 66.5433 63.4264C66.6395 63.3303 66.7444 63.2429 66.8405 63.1467C67.0766 62.9369 66.5258 63.4177 66.9105 63.0855C67.2951 62.7533 67.6972 62.4124 68.1168 62.0977C68.4927 61.8093 68.8773 61.5383 69.2619 61.276C69.4455 61.1536 69.6291 61.04 69.8039 60.9176C69.8826 60.8652 70.3022 60.6117 69.8564 60.8826C69.9788 60.8127 70.1011 60.7428 70.2148 60.6729C70.9753 60.2445 71.7533 59.8424 72.5575 59.4927C72.9334 59.3267 73.3093 59.1693 73.6852 59.0207C73.7726 58.9857 74.332 58.7759 74.0348 58.8808C73.7638 58.977 74.3758 58.7584 74.4981 58.7147C75.2499 58.4525 76.0017 58.2165 76.771 57.9892C79.542 57.1675 82.4355 56.5206 84.8831 54.9209C86.4916 53.8719 87.864 52.3946 89.1315 50.9697C91.0284 48.8368 92.7418 46.5465 94.3852 44.2125C98.1878 38.819 101.571 33.067 104.307 27.0616C106.527 22.1925 108.922 16.5455 108.59 11.0732C108.459 8.96653 107.716 7.28815 106.326 5.72341C105.277 4.5433 103.966 3.37193 102.331 3.1971C98.7472 2.81247 96.7104 6.63253 95.2244 9.255C94.2104 11.047 93.2051 12.8565 92.0512 14.5611C90.8973 16.2657 89.2014 18.3113 87.7241 19.57C85.7048 21.2834 83.6506 22.5159 81.2379 23.3114C79.7431 23.801 78.2046 24.1419 76.6486 24.3254C76.2465 24.3692 75.8443 24.4041 75.4335 24.4391C75.3199 24.4391 74.4894 24.5265 74.8828 24.5178C74.8041 24.5178 74.7342 24.5003 74.6555 24.5003C71.2201 24.4566 67.8983 24.6751 64.6114 25.794C58.9819 27.7172 54.3401 31.6596 52.0061 37.2018C51.2718 38.9413 50.7386 40.7421 50.3977 42.604C50.3102 43.0761 50.2316 43.5394 50.1005 44.0027C50.048 44.1775 49.9868 44.3524 49.9344 44.5359C49.812 44.9031 50.0043 44.466 49.7683 44.9293C49.6197 45.2353 49.4536 45.5237 49.2787 45.8122C49.235 45.8909 49.1738 45.9608 49.1214 46.0395C48.9815 46.2405 49.3836 45.7073 49.1476 45.9958C49.0252 46.1531 48.8941 46.3105 48.763 46.4591C48.6494 46.5815 48.5445 46.7038 48.4221 46.8175C48.3347 46.9049 47.8539 47.3332 48.2822 46.9573C47.9937 47.2108 47.6965 47.4469 47.3906 47.6829C44.1562 50.113 40.5722 51.9138 37.5214 54.6237C31.9442 59.5802 27.9144 65.9702 24.7762 72.6838C20.318 82.2033 17.8091 92.326 17.6867 102.851C17.643 106.881 17.9315 110.919 18.6134 114.897L18.7969 114.162C14.1115 122.353 9.41723 130.544 4.73176 138.726C4.0674 139.889 3.3943 141.06 2.72994 142.223C2.37154 142.852 2.57259 143.438 3.15828 143.788C4.43455 144.557 5.71955 145.335 6.99582 146.104C8.40321 146.952 11.1655 144.592 9.3473 143.499C8.07103 142.73 6.78603 141.952 5.50976 141.183L5.93809 142.747C10.676 134.469 15.4139 126.2 20.1519 117.921C20.755 116.864 21.4981 115.815 21.9963 114.704C22.3198 113.988 22.075 113.28 21.9701 112.537C21.804 111.435 21.6729 110.334 21.568 109.232C21.3407 106.793 21.2446 104.346 21.2708 101.898C21.4107 90.4204 24.5489 79.3448 29.9599 69.2571C33.2992 63.0331 37.5388 57.5084 43.2383 53.5485C46.4115 51.3456 50.3102 49.676 52.4782 46.3192C53.9467 44.0464 53.9817 41.2229 54.8384 38.7141C55.8524 35.7419 57.7056 32.9446 60.0658 31.0914C61.2634 30.1473 62.0239 29.6928 63.4401 29.0546C64.5765 28.5389 65.3545 28.2766 66.7706 27.927C68.0993 27.6035 68.4315 27.5511 69.699 27.42C70.512 27.3413 71.325 27.2976 72.1379 27.2888C72.4176 27.2888 72.6886 27.2976 72.9684 27.3063C73.3617 27.3063 72.54 27.2714 72.881 27.3063C72.9596 27.3063 73.047 27.3151 73.1257 27.3238C74.3146 27.4025 75.5122 27.2539 76.6923 27.0878C80.3025 26.572 83.7292 25.4269 86.8412 23.5125C91.5005 20.6453 94.7436 16.222 97.4273 11.5453C97.943 10.6362 98.45 9.72704 98.9745 8.82666C99.1843 8.46826 99.3941 8.10985 99.6214 7.75145C99.735 7.56788 99.8487 7.39304 99.971 7.21821C100.023 7.13954 100.076 7.06961 100.128 6.99093C100.303 6.73743 99.8924 7.2794 100.19 6.91226C100.391 6.65875 100.609 6.43147 100.819 6.18671C101.116 5.82831 100.548 6.46644 100.854 6.15174C101.064 5.9332 101.387 5.8283 100.906 6.07307C101.116 5.96817 101.51 5.90698 100.871 6.05559C101.072 6.01188 101.422 6.01188 100.828 6.0381C100.959 6.0381 101.44 5.98565 100.828 6.01188C100.985 6.01188 101.448 6.18671 100.976 6.01188C101.125 6.06433 101.274 6.12552 101.413 6.19545C101.51 6.23916 101.973 6.54511 101.658 6.31783C102.017 6.57134 102.349 6.85981 102.672 7.16576C103.511 7.97873 104.036 8.52945 104.464 9.46479C105.303 11.2743 105.12 13.7744 104.726 15.8811C103.476 22.5859 100.19 28.9585 96.8241 34.8241C93.4586 40.6896 90.0057 46.0045 85.5475 50.7075C85.1716 51.1096 84.7782 51.4942 84.3761 51.8788C84.3062 51.9488 84.0527 52.1761 84.3586 51.9051C84.2537 51.9925 84.1576 52.0886 84.0527 52.1761C83.8604 52.3421 83.668 52.4995 83.467 52.6568C83.231 52.8317 82.9862 52.9978 82.7414 53.1551C83.3359 52.7617 82.7764 53.1289 82.6278 53.2076C82.4617 53.295 82.3044 53.3736 82.1383 53.4523C81.8498 53.5834 81.5613 53.7058 81.2729 53.8282C80.7484 54.0467 81.4127 53.7845 81.1942 53.8632C80.9931 53.9331 80.7833 54.003 80.5823 54.073C79.8655 54.309 79.1487 54.5188 78.4231 54.7286C74.6205 55.8213 70.9141 57.0364 67.5661 59.2043C62.9505 62.2026 59.5501 66.7482 57.1462 71.6435C55.3541 75.2975 54.0167 79.17 52.9502 83.0862C52.2946 85.5076 51.7526 87.9553 51.2806 90.4116C50.8785 92.5096 50.6249 94.6513 50.0742 96.723C48.256 103.55 44.2961 109.984 39.8116 115.378C37.6874 117.93 35.4059 120.317 32.7135 122.231C31.6558 122.983 30.869 123.481 29.4879 124.005C29.8987 123.848 29.1732 124.102 29.0595 124.128C28.8235 124.198 28.5787 124.25 28.334 124.294C28.7623 124.215 28.0105 124.311 27.8794 124.32C27.7658 124.329 27.6521 124.32 27.5385 124.32C27.9581 124.32 27.3899 124.303 27.3112 124.294C27.1976 124.276 26.6119 124.137 26.9353 124.233C26.7255 124.172 26.5332 124.084 26.3409 123.997C26.0087 123.848 25.8077 123.708 25.4055 123.297C24.5576 122.458 24.0593 121.164 23.6398 119.914C23.159 118.481 20.8075 119.652 20.3354 120.474C16.3143 127.493 12.2932 134.513 8.27209 141.532C7.70389 142.52 7.13569 143.517 6.56749 144.504C6.13041 145.265 6.55874 146.017 7.37171 146.183C8.26335 146.366 9.32982 145.798 9.77564 145.029L9.78438 145.055Z" fill="black"/>
<path d="M95.6092 25.2168C91.1335 31.703 84.9008 37.42 78.2397 41.5722C75.5385 43.2506 72.6451 44.6755 69.6205 45.6633C66.3949 46.7123 63.1955 47.499 60.1971 49.1424C56.1323 51.3803 52.6794 54.6671 50.6688 58.8893C49.7072 60.9086 48.903 63.2688 48.8331 65.5329C48.8156 66.0224 52.4958 65.7077 52.522 64.7724C52.7143 58.5746 57.225 52.6915 62.3563 49.6407C65.1099 48.006 68.0907 47.2892 71.1066 46.3189C74.1224 45.3486 77.2519 43.9412 80.1016 42.2803C85.0319 39.3956 89.4551 35.7504 93.4063 31.6506C95.4868 29.5002 97.5148 27.2186 99.2194 24.7535C99.5603 24.2552 97.9432 24.3951 97.8033 24.4126C97.1826 24.4912 96.0025 24.6486 95.6092 25.2255V25.2168Z" fill="black"/>
<path d="M47.0061 77.5964C47.0061 77.5964 46.3942 87.8328 41.1143 91.0322L47.0061 77.5964Z" fill="black"/>
<path d="M45.4064 76.7135C45.3015 78.5142 44.9519 80.3237 44.4798 82.0546C43.6931 84.9305 42.3556 88.2261 39.6982 89.8695C39.1387 90.2192 40.0828 91.0059 40.3625 91.2332C40.7384 91.5392 41.158 91.8101 41.6038 91.9937C41.8224 92.0899 42.3032 92.3084 42.5305 92.1685C46.5691 89.6597 47.8978 84.24 48.466 79.8167C48.5272 79.3709 48.5796 78.9163 48.6058 78.4618C48.667 77.5002 45.4589 75.8655 45.4064 76.7047V76.7135Z" fill="black"/>
<path d="M95.6089 25.2168C91.1332 31.703 84.9005 37.42 78.2394 41.5722C75.5383 43.2506 72.6448 44.6755 69.6203 45.6633C66.3946 46.7123 63.1952 47.499 60.1969 49.1424C56.132 51.3803 52.6791 54.6671 50.6686 58.8893C49.707 60.9086 48.9028 63.2688 48.8328 65.5329C48.8153 66.0224 52.4955 65.7077 52.5218 64.7724C52.7141 58.5746 57.2247 52.6915 62.356 49.6407C65.1096 48.006 68.0905 47.2892 71.1063 46.3189C74.1222 45.3486 77.2516 43.9412 80.1014 42.2803C85.0316 39.3956 89.4549 35.7504 93.406 31.6506C95.4865 29.5002 97.5146 27.2186 99.2192 24.7535C99.5601 24.2552 97.9429 24.3951 97.8031 24.4126C97.1824 24.4912 96.0023 24.6486 95.6089 25.2255V25.2168Z" fill="black"/>
<path d="M45.4937 76.4598C45.2751 80.0177 44.366 83.8902 42.4604 86.9322C41.7261 88.1123 40.7907 89.1613 39.6019 89.8956C39.3921 90.0267 40.8169 91.1806 40.9306 91.268C41.1928 91.4691 42.2418 92.387 42.6177 92.1597C44.7419 90.8397 46.0356 88.5582 46.8923 86.2766C47.6441 84.2748 48.1074 82.1593 48.3784 80.0439C48.4308 79.6068 48.4833 79.1697 48.5095 78.7326C48.5357 78.2431 47.5217 77.6137 47.1808 77.3602C47.0759 77.2815 45.5024 76.3287 45.4937 76.4686V76.4598Z" fill="black"/>
</svg>
