<svg width="42" height="43" viewBox="0 0 42 43" fill="none" xmlns="http://www.w3.org/2000/svg">
<path fill-rule="evenodd" clip-rule="evenodd" d="M42 21.8228C42 33.4207 32.598 42.8228 21 42.8228C9.40202 42.8228 0 33.4207 0 21.8228C0 10.2248 9.40202 0.822754 21 0.822754C32.598 0.822754 42 10.2248 42 21.8228ZM20.539 8.54651C19.3862 8.54651 18.3679 9.49756 18.3679 10.6888C18.3679 11.8896 19.3862 12.831 20.539 12.831C21.6918 12.831 22.7101 11.8896 22.7101 10.6888C22.7101 9.48796 21.6918 8.54651 20.539 8.54651ZM22.3931 16.0973H18.733V34.9358H22.3931V16.0973Z" fill="#010101"/>
</svg>
