<svg width="1680" height="899" viewBox="0 0 1680 899" fill="none" xmlns="http://www.w3.org/2000/svg">
<path d="M1625.13 449.5C1625.13 425.428 1638.58 404.507 1658.37 393.839C1671.84 386.581 1680 372.273 1680 356.957V41.8524C1680 18.7374 1661.29 0 1638.2 0H41.8022C18.7149 0 0 18.7374 0 41.8524V355.397C0 371.15 8.73431 385.791 22.8692 392.716C43.8377 402.989 58.2841 424.545 58.2841 449.5C58.2841 474.455 43.8377 496.011 22.8692 506.284C8.73431 513.209 0 527.839 0 543.603V857.148C0 880.263 18.7149 899 41.8022 899H1638.19C1661.27 899 1679.99 880.263 1679.99 857.148V542.043C1679.99 526.737 1671.82 512.419 1658.36 505.161C1638.57 494.493 1625.12 473.572 1625.12 449.5H1625.13Z" fill="#D33E27"/>
</svg>
