<svg width="60" height="59" viewBox="0 0 60 59" fill="none" xmlns="http://www.w3.org/2000/svg">
<path fill-rule="evenodd" clip-rule="evenodd" d="M20.6466 2.44261C22.1541 0.881606 24.2311 0 26.4012 0H32.5792C34.7396 0 36.8082 0.873785 38.3144 2.4226C39.8206 3.97141 40.6363 6.06356 40.576 8.22314L40.3752 15.421L46.8717 13.2534C48.9745 12.5518 51.274 12.7542 53.222 13.8122C55.1699 14.8701 56.5915 16.6889 57.1478 18.8347L58.8437 25.3769C59.9389 29.602 57.4454 33.9252 53.2397 35.0928L47.2517 36.7553L51.3949 42.4265C53.9646 45.9439 53.2478 50.8707 49.7823 53.5101L44.8157 57.2927C43.0542 58.6343 40.8154 59.1858 38.6323 58.816C36.4492 58.4462 34.517 57.1881 33.2957 55.3412L29.5903 49.7381L25.9661 55.2887C24.7599 57.136 22.8444 58.4032 20.6724 58.7906C18.5004 59.178 16.2649 58.6513 14.4944 57.335L9.7553 53.8115C7.56091 52.355 6.17981 49.8722 6.17981 47.1457V47.1323C6.17981 45.2791 6.82015 43.5231 7.93779 42.1284L11.8609 36.7584L5.86173 35.0928C1.65607 33.9252 -0.837456 29.602 0.257795 25.377L1.95371 18.8347C2.50917 16.6919 3.92765 14.8751 5.87168 13.8164C7.8157 12.7577 10.1115 12.5519 12.2128 13.2478L18.6538 15.3809L18.406 8.27886C18.3304 6.11008 19.1391 4.00362 20.6466 2.44261Z" fill="black"/>
</svg>
