<svg width="40" height="27" viewBox="0 0 40 27" fill="none" xmlns="http://www.w3.org/2000/svg">
<path d="M15.7893 6.80864C15.4872 6.85316 15.1452 6.82645 14.8831 6.9511C11.2849 8.65615 8.33078 11.1002 6.73158 14.8264C6.0608 16.3934 5.78538 18.143 5.44778 19.8347C5.30118 20.5737 5.08351 20.8987 4.29279 20.8675C3.47098 20.8364 3.47098 20.3289 3.47987 19.7635C3.51096 16.8075 4.61264 14.1987 6.17186 11.768C8.51736 8.10413 11.8579 5.83815 16.0825 4.86319C16.8776 4.68067 17.4907 4.49815 17.042 3.38519C16.5933 2.26778 17.1353 0.758607 18.308 0.264454C19.0988 -0.069433 20.3026 -0.109499 21.0267 0.273358C22.0217 0.798674 22.8169 1.90273 22.3416 3.18485C21.9373 4.28 22.4793 4.5115 23.2878 4.68067C25.9487 5.24605 28.3963 6.29223 30.4797 8.06851C34.0424 11.1091 36.1747 14.9065 36.5123 19.6477C36.5745 20.5069 36.3435 20.8586 35.4062 20.8542C27.0193 20.8275 18.6323 20.823 10.2454 20.8542C9.22367 20.8542 8.94825 20.4847 9.04154 19.532C9.47244 14.9689 11.3293 11.1358 14.7765 8.09522C15.1541 7.76579 15.5272 7.4319 15.9048 7.10247C15.8693 7.00453 15.8337 6.90213 15.7982 6.80419L15.7893 6.80864ZM19.654 4.32452C20.5602 4.32898 21.2488 3.6523 21.2666 2.73522C21.2888 1.76027 20.6002 1.06133 19.6318 1.07914C18.6945 1.09695 18.0637 1.75582 18.077 2.70406C18.0904 3.64785 18.7434 4.31562 19.654 4.32007V4.32452Z" fill="#F3E7D3"/>
<path d="M20.066 26.0837C14.0357 26.0837 8.00535 26.1002 1.975 26.0589C1.4305 26.0589 0.831553 25.7653 0.36419 25.4675C-0.180311 25.1202 -0.0986358 24.2807 0.504852 23.9913C1.03574 23.7349 1.65738 23.5033 2.24272 23.4992C14.0584 23.4702 25.8786 23.4785 37.6942 23.4826C38.0028 23.4826 38.334 23.4743 38.6154 23.5653C39.3141 23.801 40.2035 23.9871 39.9585 24.93C39.7633 25.6826 39.1689 26.0837 38.2569 26.0837C32.1903 26.0754 26.1281 26.0796 20.0615 26.0796L20.066 26.0837Z" fill="#F3E7D3"/>
</svg>
