<svg width="24" height="24" viewBox="0 0 24 24" fill="none" xmlns="http://www.w3.org/2000/svg">
<path d="M14.6872 6.6C14.7472 6.72 14.9172 6.89 14.9772 6.94H15.3172C16.4672 6.6 17.8472 5.16 18.9972 6.42C19.6872 7.28 20.4872 8.14 20.0872 9.23C19.7972 10.38 18.4772 10.55 17.7272 11.41C17.8972 12.1 18.5872 12.27 19.0472 12.62C19.6172 12.85 20.0772 13.42 20.2572 14C20.2572 15.21 19.3972 16.24 18.5372 16.93C17.3272 17.39 16.3572 16.59 15.4372 16.13C15.1472 15.96 14.9172 16.13 14.7472 16.36C14.5172 17.62 14.9772 19.35 13.5372 19.92C12.6172 20.09 11.2372 20.55 10.3772 19.86C9.34718 19.11 10.1472 17.74 9.74718 16.82C9.68718 16.53 9.74718 16.25 9.34718 16.13C8.71718 16.13 8.31718 16.7 7.67718 16.88C6.98718 17.17 6.06718 17.34 5.31718 16.71C4.79718 15.68 3.36718 14.64 4.33718 13.32C4.96718 12.69 5.88718 12.46 6.45718 11.77C6.45718 11.19 5.82718 11.02 5.53718 10.74C4.96718 10.57 4.32718 10.11 4.09718 9.53C3.69718 8.21 4.61718 7.29 5.30718 6.31C6.74718 5.22 8.00718 6.6 9.26718 6.88C9.72718 6.48 9.32718 5.85 9.55718 5.33C9.55718 4.53 9.78718 3.72 10.5372 3.26C11.5172 2.97 12.8972 2.8 13.8072 3.43L14.2072 3.95C14.6072 4.7 14.8372 5.67 14.6672 6.59L14.6872 6.6Z" fill="black"/>
</svg>
