<svg width="217" height="102" viewBox="0 0 217 102" fill="none" xmlns="http://www.w3.org/2000/svg">
<g clip-path="url(#clip0_476_73235)">
<path d="M15.3401 15.3903C16.3601 16.3503 18.0201 17.6003 20.3201 19.1703C22.7501 20.8603 24.7301 22.3503 26.2501 23.6303C27.7701 24.9103 29.0801 26.4903 30.1901 28.3503C31.3001 30.2103 31.8501 32.3203 31.8501 34.6703C31.8501 37.7103 31.1501 40.2103 29.7701 42.1603C28.3801 44.1103 26.6001 45.5403 24.4301 46.4303C22.2601 47.3203 19.9801 47.7603 17.5901 47.7603C13.6401 47.7603 10.4601 47.0703 8.05006 45.6803C5.64006 44.2903 3.91006 42.3603 2.87006 39.8803C1.83006 37.4003 1.31006 34.4503 1.31006 31.0203H13.9501C13.9501 33.5403 14.2001 35.4203 14.7001 36.6503C15.2001 37.8903 15.8801 38.5103 16.7501 38.5103C17.2301 38.5103 17.6701 38.2503 18.0901 37.7303C18.5001 37.2103 18.7101 36.4703 18.7101 35.5103C18.7101 34.0803 18.3601 32.8203 17.6701 31.7303C16.9701 30.6503 16.1101 29.7003 15.0601 28.9003C14.0101 28.1003 12.5801 27.1103 10.7601 25.9403C8.72006 24.6403 7.09006 23.5003 5.87006 22.5203C4.65006 21.5403 3.61006 20.3403 2.74006 18.9003C1.87006 17.4703 1.44006 15.7703 1.44006 13.8203C1.44006 11.1303 2.02006 8.78033 3.17006 6.78033C4.32006 4.78033 5.95006 3.25033 8.06006 2.19033C10.1701 1.13033 12.6301 0.590332 15.4501 0.590332C18.9201 0.590332 21.8301 1.27033 24.1801 2.64033C26.5301 4.01033 28.2701 5.82033 29.4201 8.08033C30.5701 10.3403 31.1501 12.8103 31.1501 15.5103H18.4501C18.4101 13.7303 18.1601 12.3603 17.7001 11.4103C17.2401 10.4603 16.6501 9.98033 15.9101 9.98033C15.2601 9.98033 14.7501 10.2003 14.3801 10.6303C14.0101 11.0603 13.8301 11.6303 13.8301 12.3203C13.8301 13.4103 14.3401 14.4303 15.3601 15.3803L15.3401 15.3903Z" fill="#F3E7D3"/>
<path d="M49.1199 1.38037V46.9804H36.4199V1.38037H49.1199Z" fill="#F3E7D3"/>
<path d="M54.3301 1.38037H72.9601L77.0601 29.9104H77.7801L81.5601 1.38037H100.19V46.9804H88.7901V19.4204H87.4901L83.2601 46.9804H71.2701L67.0401 19.4204H65.7401V46.9804H54.3401V1.38037H54.3301Z" fill="#F3E7D3"/>
<path d="M105.4 1.38037H124.03L128.13 29.9104H128.85L132.63 1.38037H151.26V46.9804H139.86V19.4204H138.56L134.33 46.9804H122.34L118.11 19.4204H116.81V46.9804H105.41V1.38037H105.4Z" fill="#F3E7D3"/>
<path d="M169.18 1.38037V46.9804H156.48V1.38037H169.18ZM178.82 1.38037V10.1704H160.97V1.38037H178.82ZM178.82 19.3004V28.0904H160.97V19.3004H178.82ZM178.82 38.1904V46.9804H160.97V38.1904H178.82Z" fill="#F3E7D3"/>
<path d="M206.21 3.50037C208.45 4.91037 210.1 6.68037 211.16 8.81037C212.22 10.9404 212.76 13.0904 212.76 15.2604V17.0204C212.76 19.2304 212.26 21.4004 211.26 23.5004C210.26 25.6104 208.65 27.3704 206.44 28.7804C204.23 30.1904 201.38 30.9004 197.91 30.9004H196.74V46.9904H184.04V1.38037H197.92C201.22 1.38037 203.99 2.09037 206.23 3.50037H206.21ZM200.06 13.0404C200.06 12.1704 199.89 11.4804 199.54 10.9604C199.19 10.4404 198.65 10.1804 197.91 10.1804H196.74V22.1004H197.91C198.69 22.1004 199.25 21.8504 199.57 21.3504C199.89 20.8504 200.06 20.1404 200.06 19.2304V13.0404ZM207.16 25.6804L213.41 46.9804H202.01L198.82 29.2604L207.16 25.6804Z" fill="#F3E7D3"/>
<path d="M15.3401 68.9704C16.3601 69.9304 18.0201 71.1804 20.3201 72.7504C22.7501 74.4404 24.7301 75.9304 26.2501 77.2104C27.7701 78.4904 29.0801 80.0704 30.1901 81.9304C31.3001 83.7904 31.8501 85.9004 31.8501 88.2504C31.8501 91.2904 31.1501 93.7904 29.7701 95.7404C28.3801 97.6904 26.6001 99.1204 24.4301 100.01C22.2601 100.9 19.9801 101.34 17.5901 101.34C13.6401 101.34 10.4601 100.65 8.05006 99.2604C5.64006 97.8704 3.91006 95.9404 2.87006 93.4604C1.83006 90.9804 1.31006 88.0304 1.31006 84.6004H13.9501C13.9501 87.1204 14.2001 89.0004 14.7001 90.2304C15.2001 91.4704 15.8801 92.0904 16.7501 92.0904C17.2301 92.0904 17.6701 91.8304 18.0901 91.3104C18.5001 90.7904 18.7101 90.0504 18.7101 89.0904C18.7101 87.6604 18.3601 86.4004 17.6701 85.3104C16.9701 84.2304 16.1101 83.2804 15.0601 82.4804C14.0101 81.6804 12.5801 80.6904 10.7601 79.5204C8.72006 78.2204 7.09006 77.0804 5.87006 76.1004C4.65006 75.1204 3.61006 73.9204 2.74006 72.4804C1.87006 71.0504 1.44006 69.3504 1.44006 67.4004C1.44006 64.7104 2.02006 62.3604 3.17006 60.3604C4.32006 58.3604 5.95006 56.8304 8.06006 55.7704C10.1701 54.7104 12.6301 54.1704 15.4501 54.1704C18.9201 54.1704 21.8301 54.8504 24.1801 56.2204C26.5301 57.5904 28.2701 59.4004 29.4201 61.6604C30.5701 63.9204 31.1501 66.3904 31.1501 69.0904H18.4501C18.4101 67.3104 18.1601 65.9404 17.7001 64.9904C17.2401 64.0404 16.6501 63.5604 15.9101 63.5604C15.2601 63.5604 14.7501 63.7804 14.3801 64.2104C14.0101 64.6404 13.8301 65.2104 13.8301 65.9004C13.8301 66.9904 14.3401 68.0104 15.3601 68.9604L15.3401 68.9704Z" fill="#F3E7D3"/>
<path d="M61.69 54.9604V63.7505H34.46V54.9604H61.69ZM54.46 54.9604V100.56H41.76V54.9604H54.46Z" fill="#F3E7D3"/>
<path d="M72.1499 99.0304C69.9599 97.6204 68.3699 95.8605 67.3899 93.7505C66.4099 91.6404 65.9199 89.4805 65.9199 87.2705V54.9604H78.6199V87.9204C78.6199 88.8304 78.7599 89.5405 79.0399 90.0405C79.3199 90.5405 79.8099 90.7905 80.5099 90.7905C81.2099 90.7905 81.6899 90.5405 81.9799 90.0405C82.2599 89.5405 82.3999 88.8304 82.3999 87.9204V54.9604H95.0999V87.2705C95.0999 89.5705 94.6399 91.7604 93.7299 93.8504C92.8199 95.9305 91.2799 97.6704 89.0999 99.0604C86.9299 100.45 84.0799 101.14 80.5699 101.14C77.0599 101.14 74.3299 100.43 72.1299 99.0205L72.1499 99.0304Z" fill="#F3E7D3"/>
<path d="M100 54.9604H112.7V100.56H100V54.9604ZM105.01 91.7705H113.67C114.23 91.7705 114.67 91.6505 114.97 91.4105C115.27 91.1705 115.49 90.8504 115.62 90.4305C115.75 90.0205 115.82 89.5105 115.82 88.9005V66.6205C115.82 66.0605 115.74 65.5605 115.59 65.1205C115.44 64.6905 115.2 64.3505 114.87 64.1105C114.54 63.8705 114.14 63.7505 113.66 63.7505H105V54.9604H113.66C117.13 54.9604 119.98 55.6705 122.19 57.0805C124.4 58.4905 126.01 60.2505 127.01 62.3605C128.01 64.4705 128.51 66.6305 128.51 68.8405V86.6905C128.51 88.9005 128.01 91.0704 127.01 93.1704C126.01 95.2804 124.4 97.0404 122.19 98.4504C119.98 99.8604 117.13 100.57 113.66 100.57H105V91.7804L105.01 91.7705Z" fill="#F3E7D3"/>
<path d="M146.44 54.9604V100.56H133.74V54.9604H146.44Z" fill="#F3E7D3"/>
<path d="M157.55 99.0304C155.36 97.6204 153.77 95.8604 152.79 93.7504C151.81 91.6404 151.32 89.4804 151.32 87.2704V68.0504C151.32 65.8404 151.81 63.6704 152.79 61.5704C153.77 59.4604 155.35 57.7104 157.55 56.2904C159.74 54.8804 162.55 54.1704 165.99 54.1704C169.43 54.1704 172.35 54.8704 174.52 56.2504C176.69 57.6404 178.23 59.3804 179.15 61.4604C180.06 63.5404 180.52 65.7404 180.52 68.0404V87.2604C180.52 89.5604 180.06 91.7504 179.15 93.8404C178.24 95.9204 176.7 97.6604 174.52 99.0504C172.35 100.44 169.5 101.13 165.99 101.13C162.48 101.13 159.75 100.42 157.55 99.0104V99.0304ZM167.39 90.0404C167.67 89.5404 167.81 88.8304 167.81 87.9204V67.4004C167.81 66.4904 167.67 65.7804 167.39 65.2804C167.11 64.7804 166.62 64.5304 165.92 64.5304C165.22 64.5304 164.74 64.7804 164.45 65.2804C164.17 65.7804 164.03 66.4904 164.03 67.4004V87.9204C164.03 88.8304 164.17 89.5404 164.45 90.0404C164.73 90.5404 165.22 90.7904 165.92 90.7904C166.62 90.7904 167.1 90.5404 167.39 90.0404Z" fill="#F3E7D3"/>
<path d="M199.44 68.9704C200.46 69.9304 202.12 71.1804 204.42 72.7504C206.85 74.4404 208.83 75.9304 210.35 77.2104C211.87 78.4904 213.18 80.0704 214.29 81.9304C215.4 83.7904 215.95 85.9004 215.95 88.2504C215.95 91.2904 215.25 93.7904 213.87 95.7404C212.48 97.6904 210.7 99.1204 208.53 100.01C206.36 100.9 204.08 101.34 201.69 101.34C197.74 101.34 194.56 100.65 192.15 99.2604C189.74 97.8704 188.01 95.9404 186.97 93.4604C185.93 90.9804 185.41 88.0304 185.41 84.6004H198.05C198.05 87.1204 198.3 89.0004 198.8 90.2304C199.3 91.4704 199.98 92.0904 200.85 92.0904C201.33 92.0904 201.77 91.8304 202.19 91.3104C202.6 90.7904 202.81 90.0504 202.81 89.0904C202.81 87.6604 202.46 86.4004 201.77 85.3104C201.07 84.2304 200.21 83.2804 199.16 82.4804C198.11 81.6804 196.68 80.6904 194.86 79.5204C192.82 78.2204 191.19 77.0804 189.97 76.1004C188.75 75.1204 187.71 73.9204 186.84 72.4804C185.97 71.0504 185.54 69.3504 185.54 67.4004C185.54 64.7104 186.12 62.3604 187.27 60.3604C188.42 58.3604 190.05 56.8304 192.16 55.7704C194.27 54.7104 196.73 54.1704 199.55 54.1704C203.02 54.1704 205.93 54.8504 208.28 56.2204C210.63 57.5904 212.37 59.4004 213.52 61.6604C214.67 63.9204 215.25 66.3904 215.25 69.0904H202.55C202.51 67.3104 202.26 65.9404 201.8 64.9904C201.34 64.0404 200.75 63.5604 200.01 63.5604C199.36 63.5604 198.85 63.7804 198.48 64.2104C198.11 64.6404 197.93 65.2104 197.93 65.9004C197.93 66.9904 198.44 68.0104 199.46 68.9604L199.44 68.9704Z" fill="#F3E7D3"/>
</g>
<defs>
<clipPath id="clip0_476_73235">
<rect width="216.6" height="101" fill="white" transform="translate(0 0.610352)"/>
</clipPath>
</defs>
</svg>
